<svg                     xmlns="http://www.w3.org/2000/svg"
                    viewBox="0 0 1969 530"
                    className="w-full h-auto object-contain max-h-[600px]"
                    preserveAspectRatio="xMidYMid meet">
<path stroke="#909092" stroke-width="1" transform="translate(0,0)" d="M 212.44 526.90 C208.22,522.45 193.28,511.05 192.59,511.75 C192.26,512.07 192.00,516.08 192.00,520.67 C192.00,525.56 191.59,529.00 191.00,529.00 C190.40,529.00 190.00,524.91 189.99,518.75 L 189.99 508.50 L 187.08 506.85 C183.22,504.65 180.43,500.40 181.77,498.74 C182.32,498.06 183.08,496.04 183.46,494.25 C183.85,492.46 184.57,491.00 185.08,491.00 C185.59,491.00 186.00,490.21 186.00,489.24 C186.00,488.26 186.90,485.79 188.00,483.74 C189.23,481.45 190.00,478.10 190.00,475.06 C190.00,472.34 190.45,469.84 191.00,469.50 C191.59,469.13 192.00,470.27 192.00,472.27 C192.00,476.80 192.63,477.20 196.27,474.98 C197.97,473.95 199.62,473.26 199.93,473.46 C200.24,473.66 200.35,470.43 200.17,466.30 C199.90,460.36 200.12,458.88 201.17,459.24 C202.10,459.56 202.47,461.55 202.40,465.85 C202.35,469.23 202.51,472.00 202.75,472.00 C203.88,472.00 210.58,468.49 211.23,467.55 C211.64,466.97 211.98,465.49 211.98,464.25 C212.01,460.95 213.82,461.51 214.19,464.93 L 214.50 467.86 L 218.50 465.14 C221.23,463.28 222.60,461.56 222.82,459.71 C222.99,458.22 223.72,457.00 224.43,457.00 C225.54,457.00 231.00,449.98 231.00,448.57 C231.00,448.30 232.12,446.43 233.50,444.40 C234.88,442.38 236.00,439.97 236.00,439.06 C236.00,438.15 238.02,436.12 240.50,434.55 C242.98,432.99 245.00,431.44 245.00,431.10 C245.00,430.76 246.31,429.91 247.92,429.20 C249.52,428.49 252.87,426.35 255.36,424.45 C257.85,422.55 260.39,421.00 261.01,421.00 C261.68,421.00 261.88,420.19 261.50,419.00 C260.97,417.31 261.32,417.00 263.76,417.00 C265.55,417.00 267.54,416.05 269.00,414.50 L 271.35 412.00 L 268.17 412.00 C266.43,412.00 265.00,411.55 265.00,411.00 C265.00,410.45 267.00,410.00 269.45,410.00 C273.45,410.00 274.34,409.52 278.42,405.25 C285.14,398.21 284.77,397.68 273.48,398.18 C267.12,398.46 264.09,398.25 264.34,397.55 C264.54,396.97 265.41,396.62 266.28,396.78 C267.14,396.93 268.13,396.59 268.48,396.03 C269.30,394.70 281.00,394.68 281.00,396.00 C281.00,398.09 286.50,396.93 288.30,394.47 C290.05,392.06 290.04,392.00 288.05,392.00 C286.92,392.00 286.00,391.60 286.00,391.11 C286.00,389.79 288.84,388.93 289.53,390.04 C290.62,391.80 291.69,391.03 295.80,385.53 L 299.89 380.06 L 297.31 378.03 C295.89,376.91 293.68,376.00 292.40,376.00 C290.63,376.00 290.20,375.58 290.63,374.25 C291.04,372.95 290.94,372.84 290.24,373.82 C289.68,374.61 287.90,375.02 285.90,374.82 C282.08,374.46 281.30,372.67 284.75,372.18 C285.99,372.00 287.00,371.48 287.00,371.01 C287.00,369.32 280.18,366.00 276.69,366.00 C274.73,366.00 272.84,365.55 272.50,365.00 C272.16,364.45 272.81,364.00 273.94,364.00 C276.46,364.00 276.49,363.17 274.09,360.30 C272.44,358.32 271.86,358.20 268.38,359.15 C266.24,359.74 262.56,361.52 260.20,363.11 C257.83,364.70 255.65,366.00 255.35,366.00 C255.05,366.00 250.74,369.83 245.77,374.50 C240.80,379.17 236.35,383.00 235.87,383.00 C234.11,383.00 235.08,381.09 238.00,378.83 C239.66,377.55 243.37,374.25 246.25,371.49 C252.71,365.32 260.67,359.50 264.00,358.50 C265.38,358.09 266.95,357.42 267.50,357.02 C268.05,356.61 269.69,355.99 271.15,355.64 C272.78,355.25 274.22,353.95 274.89,352.26 C276.65,347.78 281.98,341.04 283.80,340.98 C284.18,340.97 285.62,340.08 287.00,339.00 L 289.50 337.04 L 285.75 337.02 C283.65,337.01 282.00,336.50 282.00,335.87 C282.00,335.11 283.69,334.93 287.25,335.31 C291.90,335.81 293.35,335.45 299.92,332.19 L 307.35 328.50 L 303.92 327.92 C301.22,327.46 300.87,327.18 302.26,326.56 C303.24,326.13 304.90,326.00 305.97,326.28 C307.67,326.73 307.83,326.40 307.31,323.64 C306.04,316.93 306.21,317.00 291.88,317.00 C281.89,317.00 278.93,316.71 279.25,315.75 C279.54,314.86 283.28,314.42 292.27,314.22 L 304.88 313.94 L 303.79 310.72 C301.99,305.37 301.32,305.00 293.32,305.00 C288.62,305.00 286.11,304.63 286.50,304.00 C286.84,303.45 290.07,303.00 293.69,303.00 L 300.26 303.00 L 296.38 298.95 L 292.50 294.90 L 286.00 295.45 C274.23,296.44 273.51,296.54 272.21,297.36 C271.47,297.82 270.29,297.65 269.46,296.96 C268.37,296.06 266.95,296.02 263.88,296.80 C259.71,297.86 255.00,296.79 255.00,294.77 C255.00,294.27 254.10,294.15 253.00,294.50 C250.88,295.17 250.34,294.06 251.99,292.41 C253.40,291.00 250.97,285.00 248.98,285.00 C248.11,285.00 246.81,285.56 246.09,286.25 C245.02,287.27 244.90,287.09 245.44,285.28 C246.00,283.43 245.65,282.97 243.31,282.50 C241.76,282.20 239.31,281.56 237.84,281.09 C235.49,280.34 234.63,280.82 230.19,285.37 C225.06,290.64 218.00,300.93 218.00,303.15 C218.00,304.02 217.68,304.08 216.95,303.35 C216.21,302.61 216.60,300.97 218.24,297.90 C220.65,293.37 222.02,291.51 227.94,284.77 C231.69,280.49 231.16,279.05 225.83,279.02 C224.36,279.01 222.38,278.70 221.42,278.33 C220.28,277.89 219.91,278.04 220.35,278.76 C220.99,279.79 217.04,285.00 215.64,285.00 C214.40,285.00 215.02,283.35 217.10,281.12 C218.26,279.88 219.04,278.73 218.85,278.56 C218.66,278.39 217.04,277.51 215.25,276.60 C213.46,275.69 212.00,274.23 212.00,273.35 C212.00,270.74 209.83,273.25 206.50,279.69 C204.86,282.89 203.45,285.63 203.37,285.80 C203.30,285.96 202.06,285.80 200.62,285.44 C197.72,2…14.00,529.00 C1213.45,529.00 1213.00,528.55 1213.00,528.00 ZM 1220.00 528.00 C1220.00,527.45 1220.45,527.00 1221.00,527.00 C1221.55,527.00 1222.00,527.45 1222.00,528.00 C1222.00,528.55 1221.55,529.00 1221.00,529.00 C1220.45,529.00 1220.00,528.55 1220.00,528.00 ZM 1226.54 526.00 C1224.32,521.66 1212.99,506.27 1209.83,503.32 C1205.82,499.57 1195.58,493.00 1193.75,493.00 C1192.79,493.00 1192.00,492.59 1192.00,492.08 C1192.00,491.57 1190.65,490.86 1189.00,490.50 C1185.92,489.82 1184.82,488.00 1187.50,488.00 C1188.32,488.00 1189.00,488.48 1189.00,489.06 C1189.00,489.64 1189.40,489.87 1189.90,489.56 C1190.39,489.26 1192.08,489.68 1193.65,490.50 C1195.22,491.32 1196.97,491.99 1197.54,491.99 C1198.11,492.00 1200.13,493.33 1202.04,494.96 C1203.94,496.59 1206.00,497.94 1206.62,497.96 C1208.44,498.03 1224.98,517.64 1224.99,519.75 C1225.00,520.44 1225.45,521.00 1226.00,521.00 C1226.55,521.00 1226.90,521.34 1226.79,521.75 C1226.67,522.16 1227.15,523.54 1227.85,524.81 C1228.55,526.07 1228.95,527.65 1228.73,528.31 C1228.50,528.96 1227.52,527.92 1226.54,526.00 ZM 1234.05 526.64 C1233.49,525.16 1232.57,523.40 1232.00,522.72 C1230.34,520.74 1226.00,513.96 1226.00,513.34 C1226.00,512.74 1221.83,507.65 1217.13,502.50 C1213.29,498.30 1200.51,488.00 1199.14,488.00 C1198.51,488.00 1198.00,487.56 1198.00,487.03 C1198.00,486.50 1197.36,486.31 1196.58,486.61 C1195.80,486.91 1194.05,486.43 1192.70,485.54 C1191.34,484.65 1189.67,484.05 1188.99,484.21 C1188.31,484.37 1187.53,483.89 1187.26,483.14 C1186.87,482.09 1187.51,481.95 1190.13,482.52 C1191.98,482.92 1193.65,483.64 1193.83,484.12 C1194.02,484.60 1194.86,485.00 1195.72,485.00 C1197.41,485.00 1204.30,488.93 1204.83,490.21 C1205.02,490.64 1205.79,491.00 1206.56,491.00 C1207.33,491.00 1211.42,494.49 1215.65,498.75 C1224.77,507.93 1226.00,509.35 1226.00,510.66 C1226.00,511.21 1227.01,512.61 1228.25,513.77 C1229.49,514.94 1231.38,517.60 1232.45,519.70 C1233.52,521.79 1235.07,524.30 1235.88,525.27 C1236.98,526.60 1237.07,527.33 1236.21,528.19 C1235.36,529.04 1234.82,528.65 1234.05,526.64 ZM 1281.13 527.13 C1278.15,524.15 1271.00,514.41 1271.00,513.33 C1271.00,512.79 1269.99,511.40 1268.75,510.23 C1267.51,509.07 1265.14,505.50 1263.50,502.31 C1261.85,499.11 1260.27,496.27 1259.99,496.00 C1259.71,495.73 1258.32,493.70 1256.89,491.50 C1255.47,489.30 1253.00,486.83 1251.40,486.00 C1249.81,485.18 1248.28,484.28 1248.00,484.00 C1247.72,483.72 1245.47,482.47 1243.00,481.21 C1238.19,478.77 1234.81,476.81 1234.00,476.00 C1233.05,475.05 1222.30,470.00 1221.23,470.00 C1220.65,470.00 1220.02,469.65 1219.83,469.21 C1219.42,468.24 1208.73,463.00 1207.15,463.00 C1206.52,463.00 1206.00,462.55 1206.00,462.00 C1206.00,461.45 1205.44,460.99 1204.75,460.97 C1201.83,460.91 1190.94,448.65 1187.45,441.50 C1186.38,439.30 1184.67,436.89 1183.67,436.13 C1182.45,435.23 1182.17,434.43 1182.83,433.77 C1184.07,432.53 1186.00,433.62 1186.00,435.56 C1186.00,436.35 1186.45,437.00 1187.00,437.00 C1187.55,437.00 1188.00,437.44 1188.00,437.97 C1188.00,439.60 1196.14,450.91 1200.36,455.12 C1202.55,457.31 1206.40,460.00 1208.92,461.09 C1211.44,462.18 1214.33,463.54 1215.35,464.10 C1216.36,464.67 1220.86,467.01 1225.35,469.31 C1229.83,471.61 1233.72,473.71 1234.00,474.00 C1234.28,474.28 1237.31,475.86 1240.75,477.50 C1244.18,479.15 1247.00,480.84 1247.00,481.25 C1247.00,481.66 1247.46,482.00 1248.02,482.00 C1249.71,482.00 1257.00,487.18 1256.49,488.02 C1256.23,488.44 1256.67,489.04 1257.47,489.35 C1258.28,489.66 1259.61,491.40 1260.43,493.21 C1261.26,495.02 1263.07,498.30 1264.46,500.50 C1265.85,502.70 1267.30,505.17 1267.69,506.00 C1268.08,506.83 1268.76,507.95 1269.19,508.50 C1274.40,515.08 1278.00,520.10 1278.00,520.81 C1278.00,521.98 1283.72,527.00 1285.05,527.00 C1285.64,527.00 1285.84,527.45 1285.50,528.00 C1284.58,529.49 1283.22,529.22 1281.13,527.13 ZM 1315.25 524.09 C1313.49,521.39 1311.48,517.90 1310.79,516.34 C1310.10,514.78 1309.09,513.19 1308.55,512.80 C1308.00,512.42 1307.87,511.80 1308.25,511.41 C1309.15,510.52 1312.00,512.85 1312.00,514.47 C1312.00,515.15 1313.26,517.45 1314.81,519.60 C1316.35,521.74 1317.92,524.29 1318.28,525.25 C1318.64,526.21 1319.43,527.00 1320.03,527.00 C1320.63,527.00 1320.84,527.45 1320.50,528.00 C1319.41,529.76 1318.54,529.11 1315.25,524.09 ZM 1365.24 526.80 C1364.28,525.58 1362.04,523.06 1360.25,521.20 C1358.46,519.33 1357.00,517.58 1357.00,517.31 C1357.00,516.63 1347.67,505.58 1346.75,505.17 C1346.34,504.98 1346.00,504.28 1346.00,503.60 C1346.00,502.93 1344.65,501.08 1343.00,499.50 C1341.35,497.92 1340.00,496.20 1340.00,495.68 C1340.00,495.16 1338.88,493.69 1337.50,492.41 C1336.12,491.14 1335.00,489.84 1335.00,489.53 C1335.00,489.23 1333.10,486.06 1330.77,482.49 C1327.87,478.05 1325.43,475.52 1323.02,474.46 C1321.08,473.60 1318.81,472.53 1317.97,472.08 C1317.12,471.63 1314.99,470.94 1313.22,470.55 C1311.45,470.16 1310.00,469.39 1310.00,468.84 C1310.00,467.80 1315.18,468.59 1317.97,470.06 C1318.81,470.51 1321.53,471.83 1324.00,473.00 C1328.18,474.97 1331.20,478.52 1337.50,488.86  Z" fill="none" stroke="#909092" stroke-width="0.5" stroke-opacity="0.8"></path>
</svg>
